<svg id="Layer_1" data-name="Layer 1" xmlns="http://www.w3.org/2000/svg" width="120" height="114.65" viewBox="0 0 120 114.65"><defs><style>.cls-1{fill:#575756;}.cls-2{fill:#fff;}</style></defs><circle class="cls-1" cx="58.25" cy="57.33" r="57.32"/><circle class="cls-2" cx="73.4" cy="51.44" r="45.66"/><path class="cls-1" d="M40.19,39.15h2V55.67H52.61v1.66H40.19Z"/><path class="cls-1" d="M67.91,43.67V57.33H66.1v-2.5a5.61,5.61,0,0,1-5,2.63c-3.57,0-5.92-2-5.92-5.87V43.67H57v7.74c0,2.9,1.54,4.39,4.21,4.39,2.93,0,4.77-1.85,4.77-5V43.67Z"/><path class="cls-1" d="M86.12,49.41v7.92h-1.9V49.59c0-2.88-1.54-4.36-4.21-4.36a4.53,4.53,0,0,0-4.9,4.93v7.17h-1.9V43.67H75v2.52a5.92,5.92,0,0,1,5.33-2.63C83.77,43.56,86.12,45.48,86.12,49.41Z"/><path class="cls-1" d="M101.84,48.86v8.47H100V55.2c-.85,1.4-2.51,2.26-4.82,2.26-3.18,0-5.12-1.61-5.12-4,0-2.1,1.38-3.87,5.41-3.87H100v-.83c0-2.33-1.36-3.61-4-3.61a7.32,7.32,0,0,0-4.67,1.61l-.85-1.37a9,9,0,0,1,5.71-1.85C99.79,43.56,101.84,45.33,101.84,48.86ZM100,53.22V51h-4.4c-2.72,0-3.6,1-3.6,2.44C92,55,93.26,56,95.5,56A4.48,4.48,0,0,0,100,53.22Z"/><path class="cls-1" d="M43,64.78H40v2.59h.6a.33.33,0,0,1,.23.06.2.2,0,0,1,.07.16.19.19,0,0,1-.07.16.29.29,0,0,1-.23.07H39.06a.32.32,0,0,1-.23-.07.22.22,0,0,1-.07-.16.24.24,0,0,1,.07-.16.37.37,0,0,1,.23-.06h.51V62h-.28a.29.29,0,0,1-.23-.07.22.22,0,0,1,0-.32.33.33,0,0,1,.23-.07h1.34a.33.33,0,0,1,.23.07.22.22,0,0,1,0,.32.29.29,0,0,1-.23.07H40v2.34h3V62h-.6a.33.33,0,0,1-.24-.07.22.22,0,0,1,0-.32.36.36,0,0,1,.24-.07h1.33a.38.38,0,0,1,.24.07.22.22,0,0,1,0,.32.33.33,0,0,1-.24.07h-.28v5.38H44a.33.33,0,0,1,.23.06.2.2,0,0,1,.07.16.19.19,0,0,1-.07.16.29.29,0,0,1-.23.07H42.42a.33.33,0,0,1-.24-.07.22.22,0,0,1-.07-.16.24.24,0,0,1,.07-.16.37.37,0,0,1,.24-.06H43Z"/><path class="cls-1" d="M49.39,67.82v-.65a3.24,3.24,0,0,1-2.1.83A1.85,1.85,0,0,1,46,67.59a1.33,1.33,0,0,1-.46-1,1.46,1.46,0,0,1,.6-1.15A2.79,2.79,0,0,1,47.92,65a5.6,5.6,0,0,1,.68,0,6.63,6.63,0,0,1,.79.12v-.73a.8.8,0,0,0-.35-.64,1.58,1.58,0,0,0-1-.28,5.35,5.35,0,0,0-1.47.31l-.23,0a.2.2,0,0,1-.14-.06.23.23,0,0,1-.06-.16.2.2,0,0,1,0-.15,2.12,2.12,0,0,1,.61-.22A5.24,5.24,0,0,1,48,63a2,2,0,0,1,1.34.42,1.27,1.27,0,0,1,.47.95v3h.61a.33.33,0,0,1,.23.06.2.2,0,0,1,.07.16.19.19,0,0,1-.07.16.29.29,0,0,1-.23.07Zm0-2.25a4.67,4.67,0,0,0-.67-.13,6.06,6.06,0,0,0-.75,0,2.49,2.49,0,0,0-1.54.42.92.92,0,0,0-.42.76.9.9,0,0,0,.32.69,1.44,1.44,0,0,0,.94.28,2.44,2.44,0,0,0,1.08-.24,3.8,3.8,0,0,0,1-.74Z"/><path class="cls-1" d="M54.15,63.17v1.14a8.37,8.37,0,0,1,1.32-1,1.79,1.79,0,0,1,.81-.23,1.2,1.2,0,0,1,.75.28c.23.18.34.31.34.41a.27.27,0,0,1-.06.17.25.25,0,0,1-.17.06s-.07,0-.09,0a.41.41,0,0,1-.14-.12,1.42,1.42,0,0,0-.33-.25.57.57,0,0,0-.27-.07,1.49,1.49,0,0,0-.72.23,11.3,11.3,0,0,0-1.44,1.16v2.47h2a.38.38,0,0,1,.24.06.24.24,0,0,1,.07.16.22.22,0,0,1-.07.16.33.33,0,0,1-.24.07H52.61a.35.35,0,0,1-.23-.06.2.2,0,0,1-.07-.16.18.18,0,0,1,.07-.15.29.29,0,0,1,.23-.07H53.7V63.62h-.83a.33.33,0,0,1-.23-.06.21.21,0,0,1-.07-.17.25.25,0,0,1,.06-.16.38.38,0,0,1,.24-.06Z"/><path class="cls-1" d="M60.37,63.17h2.44a.38.38,0,0,1,.24.06.26.26,0,0,1,.07.17.24.24,0,0,1-.07.16.38.38,0,0,1-.24.06H60.37v3a.8.8,0,0,0,.31.65,1.38,1.38,0,0,0,.92.27,4.06,4.06,0,0,0,1-.14,3.64,3.64,0,0,0,.83-.31.32.32,0,0,1,.17-.07.18.18,0,0,1,.15.07.19.19,0,0,1,.07.16.21.21,0,0,1-.07.15,2.46,2.46,0,0,1-.84.38,4.17,4.17,0,0,1-1.27.21,2,2,0,0,1-1.25-.37,1.19,1.19,0,0,1-.47-1v-3h-.83a.33.33,0,0,1-.23-.06.21.21,0,0,1-.07-.17.21.21,0,0,1,.07-.16.33.33,0,0,1,.23-.06h.83V61.84A.38.38,0,0,1,60,61.6a.26.26,0,0,1,.16-.07.24.24,0,0,1,.17.07.38.38,0,0,1,.07.24Z"/><path class="cls-1" d="M68.29,67.82h-.76l-1.86-4.2h-.46a.35.35,0,0,1-.23-.06.21.21,0,0,1-.07-.17.21.21,0,0,1,.07-.16.35.35,0,0,1,.23-.06H66.9a.33.33,0,0,1,.23.06.22.22,0,0,1,.07.17.2.2,0,0,1-.07.16.33.33,0,0,1-.23.06h-.74l1.65,3.75H68l1.62-3.75h-.75a.33.33,0,0,1-.23-.06.21.21,0,0,1-.07-.17.21.21,0,0,1,.07-.16.33.33,0,0,1,.23-.06h1.7a.33.33,0,0,1,.23.06.26.26,0,0,1,.07.17.24.24,0,0,1-.07.16.33.33,0,0,1-.23.06h-.46Z"/><path class="cls-1" d="M74.73,63.17v4.2h1.78a.33.33,0,0,1,.23.06.2.2,0,0,1,.07.16.19.19,0,0,1-.07.16.29.29,0,0,1-.23.07h-4a.3.3,0,0,1-.23-.07.19.19,0,0,1-.07-.16.2.2,0,0,1,.07-.16.35.35,0,0,1,.23-.06h1.77V63.62H73a.38.38,0,0,1-.24-.06.2.2,0,0,1-.07-.16.22.22,0,0,1,.07-.17.38.38,0,0,1,.24-.06Zm0-2.32V62h-.67V60.85Z"/><path class="cls-1" d="M82.61,64v-.82h1.06a.33.33,0,0,1,.23.06.22.22,0,0,1,.07.17.2.2,0,0,1-.07.16.33.33,0,0,1-.23.06h-.61v4.51a1.67,1.67,0,0,1-.19.81,2,2,0,0,1-.43.49,2.36,2.36,0,0,1-.55.35,1.51,1.51,0,0,1-.66.11H80a.37.37,0,0,1-.23-.06.24.24,0,0,1-.07-.16.24.24,0,0,1,.07-.17.37.37,0,0,1,.23-.06h1.3a1.39,1.39,0,0,0,.72-.2,1.62,1.62,0,0,0,.52-.6,1.2,1.2,0,0,0,.12-.57V66.71a2.2,2.2,0,0,1-1.87,1,2.16,2.16,0,0,1-1.6-.69,2.4,2.4,0,0,1,0-3.33,2.19,2.19,0,0,1,1.6-.68A2.22,2.22,0,0,1,82.61,64Zm0,1.36A1.84,1.84,0,0,0,82.07,64a1.81,1.81,0,0,0-1.3-.55,1.78,1.78,0,0,0-1.3.55,1.92,1.92,0,0,0,0,2.69,1.74,1.74,0,0,0,1.3.55,1.77,1.77,0,0,0,1.3-.55A1.86,1.86,0,0,0,82.61,65.35Z"/><path class="cls-1" d="M89.19,63.46a.32.32,0,0,1,.06-.22.2.2,0,0,1,.16-.07.21.21,0,0,1,.17.07.33.33,0,0,1,.06.23v.78a.37.37,0,0,1-.06.23.24.24,0,0,1-.17.07.2.2,0,0,1-.15-.06.26.26,0,0,1-.07-.19.73.73,0,0,0-.34-.54,2.4,2.4,0,0,0-2.34,0,.64.64,0,0,0-.31.51.61.61,0,0,0,.37.54,2.72,2.72,0,0,0,1,.23,7.13,7.13,0,0,1,1.3.23,1.7,1.7,0,0,1,.78.52,1.2,1.2,0,0,1,.26.72,1.31,1.31,0,0,1-.56,1,2.52,2.52,0,0,1-1.62.45A2.68,2.68,0,0,1,86,67.45a1,1,0,0,1,0,.24.18.18,0,0,1-.08.09.2.2,0,0,1-.13,0,.21.21,0,0,1-.16-.07.35.35,0,0,1-.06-.23v-.93a.33.33,0,0,1,.06-.23.2.2,0,0,1,.16-.07.22.22,0,0,1,.17.07.24.24,0,0,1,.06.18.69.69,0,0,0,.13.41,1.37,1.37,0,0,0,.6.43,2.68,2.68,0,0,0,1,.17A2.12,2.12,0,0,0,89,67.22a.9.9,0,0,0,.43-.7.76.76,0,0,0-.43-.67,3.31,3.31,0,0,0-1.28-.34,5.16,5.16,0,0,1-1.21-.22,1.22,1.22,0,0,1-.57-.42,1.05,1.05,0,0,1-.2-.6,1,1,0,0,1,.57-.92A2.57,2.57,0,0,1,87.67,63,2.43,2.43,0,0,1,89.19,63.46Z"/><path class="cls-1" d="M96.74,65.6h-4.6A2.2,2.2,0,0,0,92.87,67a2.24,2.24,0,0,0,1.53.54,3.77,3.77,0,0,0,1.06-.17,2.91,2.91,0,0,0,.9-.44.26.26,0,0,1,.17-.08.21.21,0,0,1,.22.22.26.26,0,0,1-.09.18,2.27,2.27,0,0,1-.91.5A3.92,3.92,0,0,1,94.4,68a2.69,2.69,0,0,1-1.94-.76,2.48,2.48,0,0,1-.78-1.84,2.29,2.29,0,0,1,.73-1.69,2.53,2.53,0,0,1,4.33,1.89Zm-.46-.46a2,2,0,0,0-.7-1.21,2.13,2.13,0,0,0-1.37-.47,2.05,2.05,0,0,0-1.35.47,1.93,1.93,0,0,0-.71,1.21Z"/><path class="cls-1" d="M99.44,63.17v.68a3.33,3.33,0,0,1,.85-.66,2,2,0,0,1,.86-.18,2,2,0,0,1,.94.22,1.45,1.45,0,0,1,.55.53,1.42,1.42,0,0,1,.24.77v2.84h.38a.38.38,0,0,1,.24.06.24.24,0,0,1,.07.16.22.22,0,0,1-.07.16.33.33,0,0,1-.24.07h-1.2a.33.33,0,0,1-.24-.07.19.19,0,0,1-.07-.16.2.2,0,0,1,.07-.16.38.38,0,0,1,.24-.06h.37V64.6a1,1,0,0,0-.35-.81,1.29,1.29,0,0,0-.93-.33,1.54,1.54,0,0,0-.77.18,4.2,4.2,0,0,0-.94.9v2.83H100a.33.33,0,0,1,.23.06.2.2,0,0,1,.07.16.19.19,0,0,1-.07.16.29.29,0,0,1-.23.07H98.48a.29.29,0,0,1-.23-.07.19.19,0,0,1-.07-.16.2.2,0,0,1,.07-.16.33.33,0,0,1,.23-.06H99V63.62h-.38a.33.33,0,0,1-.23-.06.21.21,0,0,1-.07-.17.21.21,0,0,1,.07-.16.33.33,0,0,1,.23-.06Z"/></svg>