<?xml version="1.0" encoding="utf-8"?>
<!-- Generator: Adobe Illustrator 25.2.1, SVG Export Plug-In . SVG Version: 6.00 Build 0)  -->
<svg version="1.1" id="Layer_1" xmlns="http://www.w3.org/2000/svg" xmlns:xlink="http://www.w3.org/1999/xlink" x="0px" y="0px"
	 viewBox="0 0 715 394" style="enable-background:new 0 0 715 394;" xml:space="preserve">
<style type="text/css">
	.st0{fill:#FFFFFF;stroke:#F2F2F2;}
	.st1{fill:none;stroke:#F2F2F2;stroke-width:5;stroke-miterlimit:10;}
</style>
<path class="st0" d="M58.9,162v4.5H39.4v-57.7h5V162H58.9z"/>
<path class="st0" d="M92.3,108.9v52.6l-6,5H70.7l-6.1-5v-52.6h5.1v50.2l3.3,2.8h11l3.3-2.8v-50.2H92.3z"/>
<path class="st0" d="M133.1,108.9v57.6h-7.3l-18.8-50.1h-0.4v50.1H102v-57.6h7.4l18.5,49.6h0.5v-49.6H133.1z"/>
<path class="st0" d="M164.7,151.4H148l-3.2,15.1h-5.2l13.3-57.6h6.9l13.3,57.6H168L164.7,151.4z M163.7,146.9l-7.1-32.8h-0.5
	l-7.1,32.8H163.7z"/>
<path class="st0" d="M103.1,201.1v80.3l-13.9,16.3H60.3v63.7H39.7V185h49.5L103.1,201.1z M78.8,208.6H60.3v65.3h18.5l3.8-4.4v-56.2
	L78.8,208.6z"/>
<path class="st0" d="M184.2,201.1v144l-13.9,16.3h-39.4L117,345.1v-144l13.9-16.1h39.4L184.2,201.1z M159.9,208.6h-18.5l-3.8,4.6
	v119.3l3.8,4.6h18.5l3.8-4.6V213.2L159.9,208.6z"/>
<path class="st0" d="M239.4,294.4h-18v67h-20.6V185h53.1l14.1,16.1v77.2l-10.3,11.9l13.1,71.2h-21L239.4,294.4z M221.4,270.8h22.3
	l3.8-4.6v-52.9l-3.8-4.6h-22.3L221.4,270.8z"/>
<path class="st0" d="M344.6,209.3h-22.3v152.2h-20.5V209.3h-22.3V185h65.1V209.3z"/>
<path class="st0" d="M376.6,209.7v52h29.2V286h-29.2v75.4H356V185h58.8v24.7L376.6,209.7z"/>
<path class="st0" d="M492.1,201.1v144l-13.9,16.3h-39.4L425,345.1v-144l13.9-16.1h39.4L492.1,201.1z M467.8,208.6h-18.5l-3.8,4.6
	v119.3l3.8,4.6h18.5l3.8-4.6V213.2L467.8,208.6z"/>
<path class="st0" d="M557,337.2v24.2h-48.3V185h20.6v152.2H557z"/>
<path class="st0" d="M569.1,185h20.6v176.4h-20.6V185z"/>
<path class="st0" d="M228.4,108.8v57.6h-5v-27.2h-16.9v27.2h-5v-57.6h5v25.9h16.9v-25.9H228.4z"/>
<path class="st0" d="M259.5,151.4h-16.7l-3.2,15.1h-5.2l13.3-57.6h6.8l13.3,57.6h-5.1L259.5,151.4z M258.5,146.9l-7.1-32.9h-0.5
	l-7.1,32.9H258.5z"/>
<path class="st0" d="M296.7,166.4l-5.5-23.8h-12.3v23.8h-5v-57.6h20.9l6,5v23.7l-5,4.2l6.2,24.7L296.7,166.4z M278.8,138.1h13.5
	l3.3-2.8v-19.2l-3.3-2.7h-13.5V138.1z"/>
<path class="st0" d="M332.5,113.3H322v53.1h-5v-53.1h-10.6v-4.5h26.1V113.3z"/>
<path class="st0" d="M368.7,108.8l-13.3,57.6h-6.9l-13.3-57.6h5.2l11.3,52.7h0.6l11.3-52.7H368.7z"/>
<path class="st0" d="M374.5,108.8h5v57.6h-5V108.8z"/>
<path class="st0" d="M415.8,113.9v10.8h-5v-8.6l-3.2-2.7h-11l-3.3,2.7V159l3.3,2.8h11l3.2-2.8v-19.4h-8.7V135h13.8v26.4l-6,5h-15.5
	l-6-5v-47.5l6-5h15.5L415.8,113.9z"/>
<path class="st0" d="M451.1,113.9v10.8h-5v-8.6l-3.2-2.7h-11l-3.3,2.7v8.5l22.5,21.7v15.1l-6,5h-15.5l-6-5v-11.7h5v9.3l3.3,2.8h10.9
	l3.2-2.8v-10.6l-22.5-21.7v-12.8l6-5H445L451.1,113.9z"/>
<path class="st0" d="M464.8,113.3v21.3h14.9v4.5h-14.9v22.7H484v4.6h-24.3v-57.6h24.4v4.5H464.8z"/>
<path class="st0" d="M523.1,108.8v57.6h-7.3L497,116.3h-0.4v50.1h-4.7v-57.6h7.4l18.5,49.6h0.5v-49.6H523.1z"/>
<rect x="7.2" y="6.9" class="st1" width="698.8" height="377.9"/>
<path class="st0" d="M668.9,201.8v144L655,362.1h-39.4l-13.9-16.3v-144l13.9-16.1H655L668.9,201.8z M644.6,209.3h-18.5l-3.8,4.6
	v119.3l3.8,4.6h18.5l3.8-4.6V213.9L644.6,209.3z"/>
</svg>
