<svg id="Layer_1" data-name="Layer 1" xmlns="http://www.w3.org/2000/svg" viewBox="0 0 715 394"><defs><style>.cls-1{fill:#fff;}.cls-1,.cls-2{stroke:#f2f2f2;}.cls-2{fill:none;stroke-miterlimit:10;stroke-width:5px;}</style></defs><path class="cls-1" d="M58.94,162v4.54H39.42V108.88h5V162Z"/><path class="cls-1" d="M92.3,108.88v52.58l-6,5H70.69l-6.06-5V108.88h5.05v50.21L73,161.9H84l3.31-2.81V108.88Z"/><path class="cls-1" d="M133.14,108.88v57.63h-7.27l-18.8-50.14h-.44v50.14H102V108.88h7.42l18.51,49.56h.51V108.88Z"/><path class="cls-1" d="M164.7,151.45H148l-3.24,15.06h-5.18l13.32-57.63h6.85l13.32,57.63H168Zm-1-4.54-7.13-32.85h-.51L149,146.91Z"/><path class="cls-1" d="M103.11,201.12v80.26L89.2,297.7H60.27v63.72H39.72V185H89.2Zm-24.35,7.49H60.27v65.27H78.76l3.8-4.41V213.24Z"/><path class="cls-1" d="M184.2,201.12v144l-13.91,16.32H130.93L117,345.1v-144L130.93,185h39.36Zm-24.34,7.49h-18.5l-3.79,4.63v119.3l3.79,4.63h18.5l3.79-4.63V213.24Z"/><path class="cls-1" d="M239.37,294.39h-18v67H200.8V185h53.11L268,201.12v77.17L257.71,290.2l13.12,71.22h-21Zm-18-23.6h22.29l3.79-4.63V213.24l-3.79-4.63H221.35Z"/><path class="cls-1" d="M344.65,209.27H322.36V361.42H301.81V209.27H279.52V185h65.13Z"/><path class="cls-1" d="M376.58,209.71v52h29.24V286H376.58v75.41H356V185h58.8v24.69Z"/><path class="cls-1" d="M492.13,201.12v144l-13.91,16.32H438.86L425,345.1v-144L438.86,185h39.36Zm-24.34,7.49h-18.5l-3.79,4.63v119.3l3.79,4.63h18.5l3.79-4.63V213.24Z"/><path class="cls-1" d="M557,337.17v24.25H508.73V185h20.55V337.17Z"/><path class="cls-1" d="M569.11,185h20.56V361.4H569.11Z"/><path class="cls-1" d="M228.45,108.81v57.63h-5V139.21h-16.9v27.23h-5V108.81h5v25.86h16.86V108.81Z"/><path class="cls-1" d="M259.5,151.39H242.79l-3.24,15.05h-5.19l13.33-57.63h6.84l13.33,57.63h-5.12Zm-1-4.54L251.36,114h-.5l-7.06,32.85Z"/><path class="cls-1" d="M296.67,166.44l-5.54-23.84H278.81v23.84h-5V108.81H294.7l6,5v23.7l-5,4.17,6.19,24.71Zm-17.86-28.38h13.54l3.32-2.81V116.09l-3.32-2.74H278.81Z"/><path class="cls-1" d="M332.55,113.35H322v53.09h-5V113.35H306.4v-4.54h26.15Z"/><path class="cls-1" d="M368.71,108.81l-13.32,57.63h-6.92l-13.33-57.63h5.19l11.31,52.73h.58l11.31-52.73Z"/><path class="cls-1" d="M374.55,108.81h5v57.63h-5Z"/><path class="cls-1" d="M415.83,113.86v10.8h-5v-8.57l-3.25-2.74h-11l-3.31,2.74V159l3.31,2.81h11l3.25-2.81V139.57h-8.72V135h13.76v26.4l-6.05,5H394.29l-6.05-5V113.86l6.05-5h15.49Z"/><path class="cls-1" d="M451.13,113.86v10.8h-5v-8.57l-3.25-2.74h-11l-3.32,2.74v8.5l22.55,21.68V161.4l-6.05,5H429.59l-6-5V149.73h5V159l3.32,2.81h10.94L446.1,159V148.36l-22.55-21.68V113.86l6-5H445Z"/><path class="cls-1" d="M464.75,113.35V134.6h14.91v4.54H464.75v22.69h19.3v4.61H459.7V108.81h24.35v4.54Z"/><path class="cls-1" d="M523.1,108.81v57.63h-7.28L497,116.31h-.43v50.13h-4.68V108.81h7.42l18.51,49.57h.5V108.81Z"/><rect class="cls-2" x="7.22" y="6.87" width="698.78" height="377.9"/><path class="cls-1" d="M668.92,201.78v144L655,362.1H615.65l-13.86-16.34v-144l13.86-16.1H655Zm-24.34,7.49h-18.5l-3.79,4.63V333.2l3.79,4.63h18.5l3.79-4.63V213.9Z"/></svg>